<?xml version="1.0" standalone="no"?>
<!DOCTYPE svg PUBLIC "-//W3C//DTD SVG 1.1//EN" "http://www.w3.org/Graphics/SVG/1.1/DTD/svg11.dtd">
<svg width="178" height="50" version="1.1" xmlns="http://www.w3.org/2000/svg">
	<g id="bars" fill="black" stroke="none">
		<rect x="0" y="0" width="2" height="38" />
		<rect x="3" y="0" width="1" height="38" />
		<rect x="6" y="0" width="1" height="38" />
		<rect x="11" y="0" width="1" height="38" />
		<rect x="15" y="0" width="2" height="38" />
		<rect x="18" y="0" width="3" height="38" />
		<rect x="22" y="0" width="3" height="38" />
		<rect x="26" y="0" width="2" height="38" />
		<rect x="29" y="0" width="1" height="38" />
		<rect x="33" y="0" width="2" height="38" />
		<rect x="36" y="0" width="3" height="38" />
		<rect x="40" y="0" width="1" height="38" />
		<rect x="44" y="0" width="1" height="38" />
		<rect x="48" y="0" width="3" height="38" />
		<rect x="52" y="0" width="2" height="38" />
		<rect x="55" y="0" width="1" height="38" />
		<rect x="59" y="0" width="1" height="38" />
		<rect x="63" y="0" width="2" height="38" />
		<rect x="66" y="0" width="2" height="38" />
		<rect x="71" y="0" width="1" height="38" />
		<rect x="73" y="0" width="1" height="38" />
		<rect x="77" y="0" width="1" height="38" />
		<rect x="81" y="0" width="2" height="38" />
		<rect x="84" y="0" width="1" height="38" />
		<rect x="88" y="0" width="1" height="38" />
		<rect x="90" y="0" width="1" height="38" />
		<rect x="94" y="0" width="2" height="38" />
		<rect x="99" y="0" width="2" height="38" />
		<rect x="102" y="0" width="3" height="38" />
		<rect x="108" y="0" width="1" height="38" />
		<rect x="110" y="0" width="1" height="38" />
		<rect x="113" y="0" width="3" height="38" />
		<rect x="118" y="0" width="2" height="38" />
		<rect x="121" y="0" width="1" height="38" />
		<rect x="124" y="0" width="2" height="38" />
		<rect x="127" y="0" width="3" height="38" />
		<rect x="132" y="0" width="1" height="38" />
		<rect x="135" y="0" width="3" height="38" />
		<rect x="139" y="0" width="2" height="38" />
		<rect x="143" y="0" width="1" height="38" />
		<rect x="146" y="0" width="3" height="38" />
		<rect x="151" y="0" width="2" height="38" />
		<rect x="154" y="0" width="3" height="38" />
		<rect x="158" y="0" width="2" height="38" />
		<rect x="161" y="0" width="1" height="38" />
		<rect x="165" y="0" width="2" height="38" />
		<rect x="170" y="0" width="3" height="38" />
		<rect x="174" y="0" width="1" height="38" />
		<rect x="176" y="0" width="2" height="38" />
		<rect x="178" y="0" width="0" height="38" />
		<rect x="178" y="0" width="0" height="38" />
	<text x="89" text-anchor="middle"  y="50" id="code" fill="black" font-size ="12px" >LYSOCHEAT1-01</text>
	</g>
</svg>
