<?xml version="1.0" encoding="utf-8"?>
<!-- Generator: Adobe Illustrator 24.1.1, SVG Export Plug-In . SVG Version: 6.00 Build 0)  -->
<svg version="1.1" id="Layer_1" xmlns="http://www.w3.org/2000/svg" xmlns:xlink="http://www.w3.org/1999/xlink" x="0px" y="0px"
	 viewBox="0 0 170.08 198.43" style="enable-background:new 0 0 170.08 198.43;" xml:space="preserve">
<style type="text/css">
	.st0{fill:#FFFFFF;}
</style>
<rect class="st0" width="170.08" height="198.43"/>
<g>
	<path d="M29.58,82.23h7.62v5.14h-1.41v5.33h3.31V82.23h7.62v5.14h-1.41v19.61h-7.43v-4.76h1.22v-4.76h-3.31v9.52h-7.43v-4.76h1.22
		V82.23z"/>
	<path d="M40.2,110.49c0-0.99-0.01-1.52-0.02-1.6h5.1v1.6h0.53c0.08,0.03,0.16,0.07,0.25,0.12c0.09,0.06,0.17,0.16,0.25,0.29
		c0.03,0.06,0.04,0.29,0.06,0.69c0.01,0.51,0.01,0.98-0.02,1.41h-1.07v5.41H40.6v-2.09c-0.23,0.41-0.61,0.73-1.14,0.97
		s-2.35,0.36-5.47,0.36c-0.57,0-1.12-0.08-1.66-0.23s-1.01-0.41-1.43-0.77c-0.42-0.36-0.67-0.84-0.74-1.43
		c-0.08-0.59-0.11-1.06-0.11-1.42c0-0.81,0.12-1.4,0.36-1.75s0.56-0.67,0.94-0.93s0.88-0.44,1.49-0.51s1.27-0.11,2.01-0.11H40.2z
		 M40.07,113h-5.03c-0.25,0-0.44,0.06-0.55,0.17s-0.17,0.26-0.17,0.44c0,0.17,0.06,0.31,0.17,0.45c0.11,0.13,0.3,0.2,0.55,0.2
		c2.42,0,3.77-0.04,4.05-0.11s0.49-0.22,0.66-0.44C39.89,113.53,39.99,113.29,40.07,113z"/>
	<path d="M49.1,82.23h15.23v5.14H49.1V82.23z M58.14,106.98V95.99c0-0.51-0.13-0.87-0.38-1.09s-0.63-0.32-1.14-0.32
		c-0.42,0-0.74,0.11-0.97,0.32s-0.34,0.58-0.34,1.09v10.99H49.1V96.53c0-2.5,0.64-4.4,1.91-5.69c1.28-1.29,3.15-1.94,5.61-1.94
		c2.5,0,4.41,0.65,5.73,1.94s1.98,3.19,1.98,5.69v10.45H58.14z"/>
	<path d="M68.14,87.37v-5.14h8.61c1.23,0,1.85-0.63,1.85-1.9h4.78c0,1.42-0.15,2.56-0.45,3.42c-0.3,0.86-0.71,1.56-1.22,2.09
		c-0.51,0.54-1.13,0.93-1.85,1.17c-0.72,0.24-1.49,0.36-2.33,0.36H68.14z M83.37,88.89v18.09h-6.21v-2.51h-2.84v2.51h-6.19V88.89
		h6.19v11.73h2.84v-6.97h-1.41v-4.76H83.37z"/>
	<path d="M74.35,116.52v1.88h-6.21v-5.5c0-1.32,0.64-2.32,1.91-3c1.28-0.68,3.15-1.02,5.61-1.02c2.5,0,4.41,0.34,5.73,1.02
		c1.32,0.68,1.98,1.68,1.98,3v5.5h-6.19v-5.79c0-0.27-0.13-0.46-0.38-0.57c-0.25-0.11-0.63-0.17-1.14-0.17
		c-0.42,0-0.74,0.06-0.97,0.17s-0.34,0.3-0.34,0.57v1.2h1.41v2.7H74.35z"/>
	<path d="M87.18,82.23h15.23v5.14H87.18V82.23z M87.18,106.98V96.53c0-2.5,0.64-4.4,1.91-5.69c1.28-1.29,3.14-1.94,5.61-1.94
		c2.5,0,4.41,0.65,5.73,1.94s1.98,3.19,1.98,5.69v10.45h-6.19V95.99c0-0.51-0.13-0.87-0.38-1.09s-0.63-0.32-1.14-0.32
		c-0.42,0-0.74,0.11-0.97,0.32s-0.34,0.58-0.34,1.09v6.23h1.41v4.76H87.18z"/>
	<path d="M94.3,69.54h4.3v9.52h-4.3V69.54z"/>
	<path d="M106.22,87.37v-5.14h8.61c1.23,0,1.85-0.63,1.85-1.9h4.78c0,1.42-0.15,2.56-0.45,3.42c-0.3,0.86-0.71,1.56-1.22,2.09
		c-0.51,0.54-1.13,0.93-1.85,1.17c-0.72,0.24-1.49,0.36-2.33,0.36H106.22z M121.46,88.89v18.09h-6.21v-2.51h-2.84v2.51h-6.19V88.89
		h6.19v11.73h2.84v-6.97h-1.41v-4.76H121.46z"/>
	<path d="M112.43,116.52v1.88h-6.21v-5.5c0-1.32,0.64-2.32,1.91-3c1.28-0.68,3.15-1.02,5.61-1.02c2.5,0,4.41,0.34,5.73,1.02
		c1.32,0.68,1.98,1.68,1.98,3v5.5h-6.19v-5.79c0-0.27-0.13-0.46-0.38-0.57c-0.25-0.11-0.63-0.17-1.14-0.17
		c-0.42,0-0.74,0.06-0.97,0.17s-0.34,0.3-0.34,0.57v1.2h1.41v2.7H112.43z"/>
	<path d="M134.29,91.73c-2.78-0.01-4.58-0.17-5.39-0.46c-0.86-0.29-1.56-0.7-2.1-1.22c-0.54-0.52-0.93-1.14-1.17-1.85
		s-0.36-1.49-0.36-2.32v-5.56h5.9v6.68c0,1.23,1.11,1.85,3.33,1.85v0.04h6v18.09h-6.21v-2.51h-2.84v2.51h-6.19V92.7h6.19v7.92h2.84
		V91.73z M137.28,88.72c-0.44,0-0.86-0.09-1.26-0.26c-0.39-0.17-0.74-0.4-1.03-0.69s-0.52-0.64-0.69-1.04
		c-0.17-0.4-0.25-0.82-0.25-1.27c0-0.43,0.08-0.84,0.25-1.23c0.17-0.39,0.39-0.73,0.69-1.03c0.29-0.3,0.63-0.54,1.03-0.71
		c0.39-0.18,0.81-0.27,1.26-0.27s0.86,0.09,1.25,0.27c0.39,0.18,0.73,0.42,1.02,0.71c0.29,0.3,0.52,0.64,0.7,1.03
		c0.17,0.39,0.26,0.8,0.26,1.23c0,0.44-0.09,0.87-0.26,1.27c-0.17,0.4-0.4,0.75-0.7,1.04s-0.63,0.52-1.02,0.69
		C138.14,88.63,137.73,88.72,137.28,88.72z"/>
	<path d="M132.39,69.54h4.3v9.52h-4.3V69.54z"/>
</g>
</svg>
