<svg xmlns="http://www.w3.org/2000/svg" viewBox="0 0 28.62 20.93"><defs><style>.cls-1{fill:red;}</style></defs><g id="Layer_2" data-name="Layer 2"><g id="Layer_1-2" data-name="Layer 1"><path class="cls-1" d="M1.2,1.18l1.4,1L0,1.92V0H6.38l8.44,14.78v6.08H12.19ZM0,19l2.68-.48h.8L6.84,19v1.89H0ZM2.13,0,3.88,1.92V20.86H2.13Zm8,0H17V1.89l-2.55.48h-.78l-3.5-.48Zm3,0h1.75V20.86l-1.75-2.24Z"/><path class="cls-1" d="M28.62,6c0,4.05-2.29,6-4.82,6S19,10.05,19,6s2.31-6,4.83-6S28.62,2,28.62,6ZM23.8,10.91c1.27,0,1.75-1.95,1.75-4.91s-.48-4.93-1.75-4.93S22,3.05,22,6,22.52,10.91,23.8,10.91Z"/><path class="cls-1" d="M21.41,18.48a2.5,2.5,0,1,1,5,0,2.5,2.5,0,0,1-5,0Z"/></g></g></svg>