<svg xmlns="http://www.w3.org/2000/svg" viewBox="0 0 3214 3214"><defs><style>.cls-1{fill:none;}.cls-2{fill:#f15a23;}.cls-3{fill:#000072;}.cls-4{opacity:0.3;}.cls-5{fill:#262f6a;}.cls-6{opacity:0.55;}.cls-7{fill:#fff;}.cls-8{fill:#00bdff;}.cls-9{fill:#19aff9;}.cls-10{fill:#fcbc06;}.cls-11{opacity:0.7;}</style></defs><g id="Layer_2" data-name="Layer 2"><g id="Layer_1-2" data-name="Layer 1"><rect class="cls-1" width="3214" height="3214"/><path class="cls-2" d="M2810.61,1067.16l-72.09,77.47-34.53,37.1L1632.79,2332.84a106.89,106.89,0,0,1-104.71,30.85L588.76,2125.45l-127.07-32.22a13.8,13.8,0,0,0-1.39-.3l-.69-.17a38.57,38.57,0,0,0-43.29,23.74,81.05,81.05,0,0,1,15-30.92,211.69,211.69,0,0,1,15.58-17.93v-.05l1298-1291.25a122.58,122.58,0,0,1,116.71-32l922.9,234.08C2824.06,988.49,2838.4,1037.28,2810.61,1067.16Z"/><path class="cls-2" d="M2813.61,1050.16l-72.09,77.47-34.53,37.1L1635.79,2315.84a106.89,106.89,0,0,1-104.71,30.85L591.76,2108.45l-127.07-32.22a13.8,13.8,0,0,0-1.39-.3l-.69-.17a38.57,38.57,0,0,0-43.29,23.74,81.05,81.05,0,0,1,15-30.92,211.69,211.69,0,0,1,15.58-17.93v-.05l1298-1291.25a122.58,122.58,0,0,1,116.71-32l922.9,234.08C2827.06,971.49,2841.4,1020.28,2813.61,1050.16Z"/><path class="cls-3" d="M1554.46,2369.5a109.75,109.75,0,0,1-27-3.38L461.08,2095.65a10.42,10.42,0,0,0-1.13-.24l-.64-.15a36,36,0,0,0-40.66,22.15l-4.76-1.5a83.23,83.23,0,0,1,15.45-31.84,210.16,210.16,0,0,1,15.07-17.42v0l.73-.78,1298-1291.25A125.62,125.62,0,0,1,1862.2,742l922.89,234.07a56.23,56.23,0,0,1,27.35,92.81h0L1634.62,2334.55A109.45,109.45,0,0,1,1554.46,2369.5Zm-1102.35-280a41.74,41.74,0,0,1,8,.78l.5.13c.6.1,1.2.24,1.74.38l1066.36,270.46A104.41,104.41,0,0,0,1631,2331.14L2808.78,1065.46a51.24,51.24,0,0,0-24.92-84.56L1861,746.83a120.6,120.6,0,0,0-114.33,31.29L449.09,2069l-.37.42a211.74,211.74,0,0,0-15.39,17.72,88.37,88.37,0,0,0-8,12.4A41,41,0,0,1,452.11,2089.52Z"/><g class="cls-4"><path class="cls-5" d="M2807.4,1062.87l-72.09,77.47-34.54,37.1L1629.58,2328.55a106.91,106.91,0,0,1-104.72,30.85L585.55,2121.16l-127.07-32.22a13.8,13.8,0,0,0-1.39-.3l-.7-.17a38.56,38.56,0,0,0-43.28,23.74,80.91,80.91,0,0,1,15-30.92,209.68,209.68,0,0,1,15.57-17.93v-.05l8-7.94,127,32.22L1518,2325.83A106.9,106.9,0,0,0,1622.67,2295l1071.2-1151.11,34.53-37.1,72.09-77.47a53,53,0,0,0,14-29.95A53.47,53.47,0,0,1,2807.4,1062.87Z"/><path class="cls-3" d="M1551.24,2365.21a109.75,109.75,0,0,1-27-3.38L457.86,2091.36a9.79,9.79,0,0,0-1.12-.24l-.64-.15a36,36,0,0,0-40.66,22.15l-4.76-1.5a83.23,83.23,0,0,1,15.45-31.84,212,212,0,0,1,15.06-17.42v0l.74-.78,9-8.94,128.35,32.57,939.31,238.24a104.4,104.4,0,0,0,102.27-30.13L2798.66,1027.6A50.58,50.58,0,0,0,2812,999.06l.89-7.47,3.76,6.51a56,56,0,0,1-7.46,66.48L1631.41,2330.26A109.46,109.46,0,0,1,1551.24,2365.21Zm-1102.35-280a41.84,41.84,0,0,1,8,.78l.5.13c.6.1,1.2.24,1.74.38L1525.48,2357a104.42,104.42,0,0,0,102.27-30.13L2805.57,1061.17a50.94,50.94,0,0,0,10-54,56,56,0,0,1-13.25,23.82L1624.5,2296.68a109.41,109.41,0,0,1-107.16,31.58L452.43,2058.15l-6.92,6.93a209.92,209.92,0,0,0-15.39,17.72,88.37,88.37,0,0,0-8,12.4A41,41,0,0,1,448.89,2085.23Z"/></g><g class="cls-6"><path class="cls-7" d="M2823.12,1016.68a53.48,53.48,0,0,0-12.3-4.78L1887.93,777.83a122.6,122.6,0,0,0-116.71,31.94L477.14,2097.15l-15.47-3.93c-.45-.12-.95-.23-1.39-.3l-.7-.17a38.56,38.56,0,0,0-43.28,23.74,80.91,80.91,0,0,1,15-30.92,209.68,209.68,0,0,1,15.57-17.93v0l1298-1291.25a122.57,122.57,0,0,1,116.71-31.94l922.89,234.07A53.18,53.18,0,0,1,2823.12,1016.68Z"/></g><path class="cls-2" d="M2803,1288.92,1625.18,2554.65a106.55,106.55,0,0,1-71.29,33.89,105,105,0,0,1-33.42-3L615.88,2356.05l-171.76-43.56a46.72,46.72,0,0,1-35.13-46.8l4.55-132.88a114.41,114.41,0,0,1,2.7-16.22c0-.05,0-.05.06-.1a38.56,38.56,0,0,1,43.28-23.74l.7.17,23.16,5.9-4.19,122.53a41.91,41.91,0,0,0,31.68,42.08l118.85,29.84L1489.22,2509a107.07,107.07,0,0,0,104.71-30.85L2716.63,1275a70.66,70.66,0,0,0,19-45.8l1.33-39.09,39.93,10.12C2816.45,1210.25,2830.79,1259,2803,1288.92Z"/><path class="cls-3" d="M1546.58,2591.3a107.56,107.56,0,0,1-26.73-3.38l-1076.35-273a49.49,49.49,0,0,1-37-49.31L411,2132.73a119,119,0,0,1,2.7-16.44v-.8l.43-.42a41,41,0,0,1,45.9-24.77l.48.12,25.46,6.47-4.26,124.55A39.61,39.61,0,0,0,511.54,2261l978.29,245.53a104.62,104.62,0,0,0,102.27-30.13L2714.81,1273.3a68.18,68.18,0,0,0,18.3-44.18l1.44-42.2,42.94,10.89a56.24,56.24,0,0,1,27.35,92.81h0L1627,2556.35a108.72,108.72,0,0,1-73,34.69Q1550.32,2591.3,1546.58,2591.3Zm-1128-473.85a114.24,114.24,0,0,0-2.59,15.62l-4.52,132.71a44.44,44.44,0,0,0,33.24,44.29l1076.35,273a104.64,104.64,0,0,0,102.27-30.14L2801.18,1287.21h0a51.24,51.24,0,0,0-24.92-84.55l-36.92-9.36-1.23,36a73.18,73.18,0,0,1-19.65,47.42l-1122.7,1203.1a109.6,109.6,0,0,1-107.16,31.57L510.32,2265.85a44.64,44.64,0,0,1-33.57-44.59l4.12-120.52-21.21-5.39-.08-2.6-.48,2.45a35.92,35.92,0,0,0-40.48,22.2Z"/><g class="cls-4"><path class="cls-3" d="M614.12,2348.94a50.47,50.47,0,0,1,1.76,7.11l-171.76-43.56a46.72,46.72,0,0,1-35.13-46.8l4.55-132.88a114.41,114.41,0,0,1,2.7-16.22c0-.05,0-.05.06-.1a38.56,38.56,0,0,1,43.28-23.74l.7.17,23.16,5.9-4.19,122.53a41.91,41.91,0,0,0,31.68,42.08l118.85,29.84S605,2321.9,614.12,2348.94Z"/></g><path class="cls-3" d="M1554.46,2379.51a119.24,119.24,0,0,1-29.47-3.7L458.62,2105.35a11.21,11.21,0,0,1-1.18-.25l-.68-.17A25.83,25.83,0,0,0,428,2121.05a12.5,12.5,0,0,1-23.79-7.53,92.7,92.7,0,0,1,17.2-35.5,222.85,222.85,0,0,1,15.84-18.33q.4-.49.87-1l1298-1291.25a135.66,135.66,0,0,1,128.6-35.19l922.89,234.07a66.24,66.24,0,0,1,32.22,109.32h0L1641.94,2341.36A119.42,119.42,0,0,1,1554.46,2379.51ZM462.89,2080.69c.67.13,1.36.28,2,.45l1066.27,270.43a94.41,94.41,0,0,0,92.48-27.24L2801.46,1058.64a41.23,41.23,0,0,0-20.05-68l-922.9-234.08a110.55,110.55,0,0,0-104.81,28.69L456.37,2075.82l-.39.43c-1.08,1.14-2.11,2.23-3.07,3.27a51.66,51.66,0,0,1,9.12,1ZM2810.61,1067.16h0Z"/><path class="cls-3" d="M1546.89,2601.32a119.26,119.26,0,0,1-29.48-3.7l-1076.34-273a59.55,59.55,0,0,1-44.54-59.34l4.54-132.88c0-.28,0-.56.05-.83a126.93,126.93,0,0,1,3-18h0a12.85,12.85,0,0,1,.68-2A51,51,0,0,1,462,2080.49c.26.05.86.2,1.11.26l23.41,6a12.51,12.51,0,0,1,9.41,12.55l-4.19,122.53A29.57,29.57,0,0,0,514,2251.31l978.28,245.53a94.55,94.55,0,0,0,92.52-27.24L2707.52,1266.48a58.19,58.19,0,0,0,15.62-37.69l1.33-39.1A12.5,12.5,0,0,1,2740,1178l39.93,10.13a66.23,66.23,0,0,1,32.22,109.31h0L1634.37,2563.17A119.42,119.42,0,0,1,1546.89,2601.32ZM426,2133.68l-4.52,132.45a34.38,34.38,0,0,0,25.72,34.26l1076.33,273a94.44,94.44,0,0,0,92.48-27.24L2793.88,1280.41a41.23,41.23,0,0,0-20.05-68l-24.9-6.32-.8,23.59a83.22,83.22,0,0,1-22.33,53.9L1603.1,2486.64a119.49,119.49,0,0,1-116.93,34.44L507.91,2275.56a54.7,54.7,0,0,1-41.13-54.63l3.85-112.47-13.42-3.41-.31-.08a25.92,25.92,0,0,0-28.71,15.54A103.24,103.24,0,0,0,426,2133.68Zm2377-844.75h0Z"/><g class="cls-4"><path class="cls-3" d="M2803,1288.92,1625.18,2554.65a106.55,106.55,0,0,1-71.29,33.89l-27.45-76.86a106.78,106.78,0,0,0,67.49-33.58L2716.63,1275a70.66,70.66,0,0,0,19-45.8l1.33-39.09,39.93,10.12C2816.45,1210.25,2830.79,1259,2803,1288.92Z"/></g><path class="cls-3" d="M1528.09,2376.2a12.56,12.56,0,0,1-3.08-.39l-.57-.14L457.21,2105.05a12.51,12.51,0,0,1,4.84-24.5,25.41,25.41,0,0,1,2.83.59l1066.27,270.43a12.51,12.51,0,0,1-3.06,24.63Z"/><path class="cls-7" d="M2738.5,1144.62l-2.89,84.58a70.66,70.66,0,0,1-19,45.8L1593.93,2478.1A107.12,107.12,0,0,1,1489.22,2509L510.93,2263.43a41.91,41.91,0,0,1-31.68-42.08l4.19-122.53,1044.61,264.86a106.91,106.91,0,0,0,104.72-30.85L2704,1181.72Z"/><path class="cls-3" d="M1515.46,2514.74a109.22,109.22,0,0,1-26.86-3.36L510.32,2265.85a44.65,44.65,0,0,1-33.57-44.59l4.3-125.63,3,.76,1044.62,264.87a104.38,104.38,0,0,0,102.26-30.13L2741.23,1138l-3.12,91.27a73.18,73.18,0,0,1-19.65,47.42l-1122.7,1203.1a109.77,109.77,0,0,1-80.3,34.93ZM485.83,2102l-4.08,119.44A39.61,39.61,0,0,0,511.54,2261l978.29,245.53a104.6,104.6,0,0,0,102.27-30.13L2714.81,1273.3a68.18,68.18,0,0,0,18.3-44.18l2.66-77.9L1634.6,2334.54a109.41,109.41,0,0,1-107.16,31.57Z"/><g class="cls-4"><path class="cls-3" d="M2738.5,1144.62l-2.89,84.58a70.66,70.66,0,0,1-19,45.8L1593.93,2478.1a106.75,106.75,0,0,1-61.45,32.78l2.43-71.22a34,34,0,0,0-25.76-34.17L481.72,2149.21l1.72-50.39,1044.61,264.86a106.91,106.91,0,0,0,104.72-30.85L2704,1181.72Z"/></g><path class="cls-3" d="M1515.59,2524.75a119.7,119.7,0,0,1-29.42-3.67L507.91,2275.56a54.7,54.7,0,0,1-41.13-54.63L471,2098.4a12.49,12.49,0,0,1,15.56-11.69l1044.62,264.86a94.4,94.4,0,0,0,92.48-27.24L2729.37,1136.11a12.5,12.5,0,0,1,21.65,8.94l-2.89,84.59a83.22,83.22,0,0,1-22.33,53.9L1603.1,2486.64A119.44,119.44,0,0,1,1515.59,2524.75Zm-1020.16-410-3.66,107A29.56,29.56,0,0,0,514,2251.31l978.28,245.53a94.55,94.55,0,0,0,92.52-27.24L2707.52,1266.48a58.19,58.19,0,0,0,15.62-37.69l1.74-51.16-11.74,12.62L1641.94,2341.36a119.38,119.38,0,0,1-117,34.45Z"/><path class="cls-8" d="M531.63,2208c-52.13,46.6-73.81,113.09-70.13,215l47.64-39.67,36.8,57.57c7.29-92.38,27-163.15,85.76-204.4Z"/><g class="cls-6"><path class="cls-7" d="M636.25,2238.3c-.21.14-.47.33-.67.48l-80.46-22.93c-48.36,43.25-70.54,103.65-70.55,193.49L466,2424.77c-3.67-101.88,18-168.4,70.13-215Z"/></g><path class="cls-3" d="M545.94,2453.35a12.48,12.48,0,0,1-10.53-5.76L506.24,2402l-36.74,30.58A12.5,12.5,0,0,1,449,2423.4c-3.84-106.08,19.07-175.4,74.28-224.76a12.46,12.46,0,0,1,11.76-2.7l100.08,28.49a12.51,12.51,0,0,1,3.76,22.26c-48.29,33.89-72.36,92.26-80.48,195.15A12.5,12.5,0,0,1,549,2453,12.64,12.64,0,0,1,545.94,2453.35Zm-36.8-82.57a12.29,12.29,0,0,1,1.91.15,12.5,12.5,0,0,1,8.62,5.62l17.43,27.26c7.54-59.73,24.11-120.17,68.18-161.88l-70.32-20c-41.25,39.62-60.59,94.42-61.33,174.67l27.51-22.9A12.45,12.45,0,0,1,509.14,2370.78Z"/><g class="cls-4"><ellipse class="cls-3" cx="1575.89" cy="2981.96" rx="771.08" ry="95.04"/></g><path class="cls-9" d="M1073.35,332.6l416.76,1532.58-10.44,210.42c-1.29,25.83-34.81,35-49,13.34l-115.55-176.13L898.36,380.23a40,40,0,0,1,28.12-49.16l97.73-26.6A40,40,0,0,1,1073.35,332.6Z"/><rect class="cls-10" x="958.75" y="564.14" width="181.36" height="52.16" transform="translate(-118.16 296.31) rotate(-15.23)"/><g class="cls-4"><path class="cls-3" d="M1073.35,332.6l416.76,1532.58-10.44,210.42c-1.22,24.73-32,34.13-47,16a30.52,30.52,0,0,0,.34-3.25l10.44-210.41L1026.67,345.31a40,40,0,0,0-49.14-28.14l46.68-12.7A40,40,0,0,1,1073.35,332.6Z"/></g><path class="cls-10" d="M1490.11,1865.18l-10.44,210.42a26.6,26.6,0,0,1-4.42,13.66c-9.79,14.6-33.28,16.86-44.58-.32l-115.55-176.13Z"/><g class="cls-11"><path class="cls-7" d="M1473,2092.19c-10.81,11.92-31.79,12.69-42.28-3.25l-115.55-176.13L898.36,380.23a40,40,0,0,1,28.12-49.16l28.09-7.65a40,40,0,0,0-28.12,49.16L1343.2,1905.16l115.56,176.13A26,26,0,0,0,1473,2092.19Z"/></g><path class="cls-3" d="M1452.67,2112.39a37.39,37.39,0,0,1-31.48-17.24L1305.64,1919a11.19,11.19,0,0,1-1.46-3.25L887.42,383.22a51.48,51.48,0,0,1,36.1-63.1l97.7-26.59a51.38,51.38,0,0,1,63.07,36.11L1501.05,1862.2a11.46,11.46,0,0,1,.38,3.54L1491,2076.16a37.51,37.51,0,0,1-28,34.84A39.71,39.71,0,0,1,1452.67,2112.39Zm-127.09-204.3,114.57,174.62a15.37,15.37,0,0,0,28.2-7.68l10.35-208.61L1062.42,335.59a28.73,28.73,0,0,0-35.25-20.18L929.47,342a28.76,28.76,0,0,0-20.17,35.27Z"/><path class="cls-10" d="M922,196.71h74.42a24.37,24.37,0,0,1,24.37,24.37v98.84a0,0,0,0,1,0,0H897.59a0,0,0,0,1,0,0V221.09A24.37,24.37,0,0,1,922,196.71Z" transform="translate(-34.17 260.96) rotate(-15.23)"/><g class="cls-4"><path class="cls-3" d="M1008.82,206.23l25.94,95.37L1002,310.53,976,215.16A24.35,24.35,0,0,0,946.12,198l32.81-8.93A24.35,24.35,0,0,1,1008.82,206.23Z"/></g><g class="cls-11"><path class="cls-7" d="M929.8,202.45a24.36,24.36,0,0,0-17.09,29.94l25.93,95.37-22.7,6.18L890,238.57a24.38,24.38,0,0,1,17.09-29.94Z"/></g><path class="cls-3" d="M915.92,345.28A11.35,11.35,0,0,1,905,336.92L879,241.53a35.76,35.76,0,0,1,25.08-43.82l71.81-19.55h0a35.72,35.72,0,0,1,43.85,25.09l25.93,95.37a11.34,11.34,0,0,1-8,13.92L918.9,344.88A11.2,11.2,0,0,1,915.92,345.28Zm66-145.24-71.81,19.54a13.06,13.06,0,0,0-9.16,16l23,84.45,97-26.39-23-84.44a13,13,0,0,0-16-9.16Z"/><path class="cls-10" d="M1130.09,541.24a102.77,102.77,0,0,1,126.15,72.22l80.14,294.69a49.9,49.9,0,0,1-35,61.24l-10.07-37A42.14,42.14,0,0,1,1269.16,851l-60.84-223.73a52.9,52.9,0,0,0-64.94-37.18h0l-13.29-48.89Z"/><g class="cls-11"><path class="cls-7" d="M1259.27,897.4A42.1,42.1,0,0,0,1311,927l8.93,32.83a49.75,49.75,0,0,1-18.54,9.56l-10.07-37A42.14,42.14,0,0,1,1269.16,851l-60.84-223.73a52.87,52.87,0,0,0-64.94-37.18l-13.29-48.89a100,100,0,0,1,20.22-3.39l12.76,46.92A52.88,52.88,0,0,1,1228,622l60.84,223.73A42.14,42.14,0,0,0,1259.27,897.4Z"/></g><path class="cls-3" d="M968.78,650.53a11.32,11.32,0,0,1-10.94-8.36l-13.68-50.33a11.34,11.34,0,0,1,8-13.92l175-47.62a11.34,11.34,0,0,1,13.91,8l13.69,50.34a11.34,11.34,0,0,1-8,13.91l-175,47.63A11.61,11.61,0,0,1,968.78,650.53Zm.23-53.7,7.73,28.45,153.12-41.67-7.74-28.46Z"/><path class="cls-3" d="M1301.34,980.73a11.32,11.32,0,0,1-10.93-8.37L1283,945.12a53.49,53.49,0,0,1-27.43-100.87l-58.18-214a41.57,41.57,0,0,0-51-29.22,11.34,11.34,0,0,1-13.92-8l-13.29-48.89a11.32,11.32,0,0,1,8-13.91,114.1,114.1,0,0,1,140.07,80.19l80.14,294.68a61.31,61.31,0,0,1-43,75.16A11.62,11.62,0,0,1,1301.34,980.73ZM1291.28,921a11.32,11.32,0,0,1,10.93,8.37l6.65,24.44a38.65,38.65,0,0,0,16.58-42.71L1245.3,616.44a91.45,91.45,0,0,0-101.12-66.57l7.42,27.3a64.27,64.27,0,0,1,67.66,47.16l60.84,223.74a11.34,11.34,0,0,1-8,13.91,30.8,30.8,0,0,0,16.16,59.44A11.2,11.2,0,0,1,1291.28,921Z"/><path class="cls-3" d="M1315.11,1924.15a11.34,11.34,0,0,1-3-22.28l175-47.63a11.34,11.34,0,1,1,6,21.88l-175,47.63A11.37,11.37,0,0,1,1315.11,1924.15Z"/><path class="cls-3" d="M1297.26,1856.23a9.07,9.07,0,0,1-2.38-17.82l175-47.63a9.07,9.07,0,1,1,4.77,17.5l-175,47.63A9,9,0,0,1,1297.26,1856.23Z"/><path class="cls-3" d="M1279.41,1790.58a9.07,9.07,0,0,1-2.38-17.83l175-47.62a9.07,9.07,0,0,1,4.76,17.5l-175,47.63A9.33,9.33,0,0,1,1279.41,1790.58Z"/><path class="cls-3" d="M1261.55,1724.93a9.07,9.07,0,0,1-2.37-17.83l175-47.62a9.07,9.07,0,1,1,4.76,17.5l-175,47.63A9.35,9.35,0,0,1,1261.55,1724.93Z"/><path class="cls-3" d="M1243.7,1659.28a9.07,9.07,0,0,1-2.38-17.82l175-47.63a9.07,9.07,0,0,1,4.76,17.5l-175,47.63A9.41,9.41,0,0,1,1243.7,1659.28Z"/><path class="cls-3" d="M1225.85,1593.63a9.07,9.07,0,0,1-2.38-17.82l175-47.63a9.07,9.07,0,1,1,4.77,17.5l-175,47.63A9,9,0,0,1,1225.85,1593.63Z"/><path class="cls-3" d="M1208,1528a9.07,9.07,0,0,1-2.37-17.83l175-47.62a9.07,9.07,0,0,1,4.77,17.5l-175,47.63A9.35,9.35,0,0,1,1208,1528Z"/><g class="cls-4"><path class="cls-3" d="M1490.11,1865.18l-10.44,210.42a26.6,26.6,0,0,1-4.42,13.66c-10.31,2.66-17,4.34-17,4.34l-14.82-215.71Z"/></g><path class="cls-7" d="M1543.36,1404.1q.73-11.73-36.46-9.5,6.33-18.06,15.6-29.3,2.8-4.47,13.75-17.94,5.28-6.83,9.72-8.12a25.12,25.12,0,0,1,10.81-.33l14.12,3.09q3.54,1.1,5.67,13.28c1.42,8.12,2.76,12.32,4,12.59.89.19,2.68-1.57,5.38-5.3s3.84-9.9,3.46-18.52-2.4-14.27-6.05-17a26,26,0,0,0-13.54-4.74,63.4,63.4,0,0,0-14.19,4.66l-2.31.68q-13.23,3.69-18.58,2.52a25.05,25.05,0,0,1-11.18-5.69q-5-4.34-11.09-14.42c-1.13-1.75-2-4.61-2.66-8.57a10.85,10.85,0,0,1,.22-3,29.83,29.83,0,0,0,4.5,1.41l2.73.6q13.08,2.87,27.86-4.2t25.39-4.75a51.53,51.53,0,0,1,10.19,3.74q8.13,5.23,15,15.92,5.94,9.29,7.73,27.28-.54,27.09-11.3,38.77-10.35,10.26-16.89,9.58-2.58-.57-3.56-4t-5.84-12.78a62.41,62.41,0,0,0-10.38-3.62q-5.28-1.32-16.24,0a20.81,20.81,0,0,0-10.24,3.37q-3.06,2.15-2.25,3.39a53.83,53.83,0,0,1,28.11,5.73,31.48,31.48,0,0,1,10.92,8.33q4.39,5.07,3.24,14.75l-12.19,55.63q-1.83,6.4,1.56,11.14-9,5.06-25.65,5.18a81.34,81.34,0,0,1-14.56-11.4q-17.76-17.49-15.75-38l2.23-10.2q2.54-6.14,7.38-8.53,8.4-3.34,17,1.45,7.26,4.83,6.69,16.26-2.61,12.92-11.79,12.42-1.61,11.74,8.34,19.1Z"/><path class="cls-7" d="M1607.85,1485.27a43.43,43.43,0,0,1-3.13-5.43c-1.67-3.18-2.8-5.45-3.36-6.84a98.39,98.39,0,0,1-2.84-11.15,36.1,36.1,0,0,1-1.36-9.09q0-3.94,0-6.81a25.51,25.51,0,0,1,.59-5.65,49,49,0,0,1,3-9A55,55,0,0,1,1606,1422a27.84,27.84,0,0,1,8.39-7.72q3.48-2.14,10.4-5.6,9.26-4.35,13.34-5.72a40,40,0,0,1,13.18-2,61.46,61.46,0,0,1,7.43.55,57.82,57.82,0,0,1,13.85,5.3q4.47,2.28,9.6,5.45,12.42,8.88,19.25,17.61,10.23,12.93,8.12,25.53l-9.37,42.76q-2.19,11.49-14.05,9.44a32.62,32.62,0,0,1-8.93-3.36q-4.18-2.33-14.78-13.6,9-.83,12.3-5.89a36.72,36.72,0,0,0,4.83-12.17q2.52-11.53.19-20.85a45.09,45.09,0,0,0-9.37-17.82q-7-8.51-12.27-12.24a36.23,36.23,0,0,0-14.47-7.38,15.21,15.21,0,0,0-10.09,2.65,18.4,18.4,0,0,0-8.12,9.5,36.21,36.21,0,0,0-2.7,11.34q-.57,8.51,4.09,19.25a68.68,68.68,0,0,0,12.22,18.66q5.67,2.64,7.68.92a8.78,8.78,0,0,0,2-3.66q.86-3.92-2-10.16a5.56,5.56,0,0,0-4-3.63c-2-.54-4-1-6-1.47q-6.9-1.51-7.53-4.84a14.73,14.73,0,0,1-.08-5.79q2-9.27,10.24-9.74a30.71,30.71,0,0,1,5.61.47,18,18,0,0,1,13.74,12q3.63,9.77,1,21.92-3,13.5-11.89,19.31-6.95,4.1-12.27,4.22a49.52,49.52,0,0,1-10-.9l-3.09-.68A25.83,25.83,0,0,1,1607.85,1485.27Zm-6.2-79.63-2.28,10.4a396.62,396.62,0,0,1,39.35-17.94c-.83-.47-1.67-.9-2.52-1.3a43.62,43.62,0,0,0-16.78-3.25q8.31-8.33,14.64-8.67a41.84,41.84,0,0,1,11.25,1.39q5.82,1.49,11.08,2.64a7.69,7.69,0,0,0,2.23.17l5.67,1.24c1.17.25,2.08,1.52,2.73,3.78s1.84,3.59,3.56,4q1.13.24,4.92-2.49t5.22-2.42l12.79,3.5q6.77,1.88,15.42,3.76,6.49,1.42,12.54-7,3.26-5,10.25-16.22l-42-9.21c-1.77-.17-4,.65-6.86,2.45s-4.65,2.59-5.54,2.4c-1.24-.27-2.27-1.71-3.11-4.3a7.11,7.11,0,0,0-4.79-5l-19.88-4.36a25.49,25.49,0,0,0-10.82.33q-4.44,1.29-9.72,8.13-10.93,13.47-13.75,17.93A145.68,145.68,0,0,0,1601.65,1405.64Z"/><path class="cls-7" d="M1633.51,1545.1l.72.15a58.29,58.29,0,0,0,9.23,1.22c3.35.19,5.63-.23,6.86-1.25s1.14-2-.25-3a14.42,14.42,0,0,0-5.69-2.38,22.56,22.56,0,0,0-6.17-.43c-2.18.13-3.86.22-5,.25a5,5,0,0,1-3.59-4.57,20.33,20.33,0,0,1,.27-5.88q.78-3.6,6.23-3.54a45.47,45.47,0,0,1,8.94.82q7.93,1.74,11.51,6.84a13.37,13.37,0,0,1,2.29,11q-1.93,8.85-11.27,13.51a21.18,21.18,0,0,1-10,3q-4.47,0-14.16-2.13l-1.24-.27a28.93,28.93,0,0,1-10.41-9.63,36.85,36.85,0,0,0-2.11-3.16,31.35,31.35,0,0,1-2.38-10.61,40.84,40.84,0,0,1,.82-10.89l.73-3.3a10.2,10.2,0,0,0,1.28-2.42q6.39-10.9,16-14,7.59-2.12,20,.6a58.23,58.23,0,0,1,10.83,3.56,78.24,78.24,0,0,1,8.87,4.37,88.13,88.13,0,0,1,8.64,6.16q2.79,2,12.17,7.52a34.51,34.51,0,0,1,6.41,4.75l-5.57,24.91q-1.56,7.11-11.12,8.36l-19,2q9.1-25.32,9.67-27.89,1.59-7.21-3.19-12-9.75-9.69-21.29-12.22a19,19,0,0,0-9.9.1q-4.24,1.34-6.38,8.64a58.15,58.15,0,0,0,.33,14.76Q1627.17,1542,1633.51,1545.1Z"/><path class="cls-7" d="M1842.05,1429.53q-11-2.35-15.46-2.36c-2.95,0-5.26,1.57-6.91,4.7s-1,4.86,1.83,5.2q17.85,7.7,25.27,16.23t6.87,15.43q.67,5.34-5,22.23-7.37,20.31-24.44,30.71a62.61,62.61,0,0,1-22.74,7.44,61.64,61.64,0,0,1-20.1-.63q-15.57-3.4-22-6.53t-14.17-12.18q-7.8-9-11-24.21a47,47,0,0,1-.22-19.7q.63-2.88,15.19-9.19,9.32-4.11,11.7-6.08-12.23-4.83-16.15-9.58-8.22-6.35-7-15.9l-.08-.12a.26.26,0,0,1,.15-.18,10.27,10.27,0,0,1,.23-1.57q5.21-7.5,8.21-12.35l.11,0,4.93-7.24q10.26-15.78,10.33-16.09,3.66-3,11.6-1.24l40.8,8.94q-7,11.22-10.25,16.22-6,8.4-12.54,7l-15.4-3.37a53.89,53.89,0,0,0-11.17-1.48,12.44,12.44,0,0,0-8.13,3.08,34.22,34.22,0,0,0,4,4.77q3.94,3.68,11.54,6,11.94,3.16,18.76,1.09a28,28,0,0,1-8.36,15h-.54q-1.95,1.52-4.71,3.29-11.56,7.4-13.86,17.91a27.07,27.07,0,0,0-.14,11q6.29,22.55,24.22,26.47a45.85,45.85,0,0,0,14,1,52.23,52.23,0,0,0,12.62-2.69,38.68,38.68,0,0,0,14-6.77,18.81,18.81,0,0,0,7.18-10.84q-5.17-7.93-10.3-11.65a73.56,73.56,0,0,0-15.15-9.69,76.07,76.07,0,0,0-17.23-6.15,223.68,223.68,0,0,1,14.13-27.51q9.46-16.12,13.08-21.27c2.41-3.43,3.63-5.25,3.68-5.46q3.67-3,11.61-1.23l31,6.79a7.15,7.15,0,0,1,4.79,5q1.24,3.9,3.11,4.3,1.34.3,5.54-2.4t6.85-2.44l51.31,11.24a21.68,21.68,0,0,0-6.38,10.37c-.14,1-.27,1.92-.4,2.83l-21,96.35a23.18,23.18,0,0,1-2.51,7q-1.51,2.47-11.51,7.46t-13.61,4.2c-1.44-.31-2.22-1.35-2.34-3.1l22-100.56q-1.89-5.16-6-5.83l-18.59-4.83q-1.44-.32-5.22,2.41t-4.92,2.49q-2.58-.57-3.56-4t-2.73-3.79Q1853.09,1431.9,1842.05,1429.53ZM1781.47,1470q4.1-5.37,6.57-4.83a39.47,39.47,0,0,0,9.31,8.52q6.14,4.26,9,4.89a103.35,103.35,0,0,0,10.84,1.79,46.29,46.29,0,0,0,9.23.24q-.74,1.89-5.8,7t-13.72,7.19a19.22,19.22,0,0,1-9.31.12,71,71,0,0,1-9.4-3.19q-6.51-2.57-15.29-9.78A134,134,0,0,1,1781.47,1470Z"/><path class="cls-7" d="M1981.66,1460.07q-14.72-3.33-23.84,11.73,17.7,2,38.46,10.26,23.54,8.4,35.41,19.74a21.1,21.1,0,0,1,7.43,13.4,45.74,45.74,0,0,1-.7,16.47c-.4,1.86-1,4.41-1.73,7.67a94.12,94.12,0,0,1-5,14,62.21,62.21,0,0,1-8.38,12.85,44.7,44.7,0,0,1-9.88,8.64q-5.32,3.36-9,2.55c-2.07-.45-3.56-2.58-4.49-6.38a144.41,144.41,0,0,0-5-15.35A117.08,117.08,0,0,0,1987,1538q-4.79-8.71-7.36-5.83-12,11.94-16.34,16.94-5.77,7.59-11,14.85a5.55,5.55,0,0,1-4.3.9q-5.25-1.16-13.88-10.06c-2.38-3-3.38-5.28-3-6.93l8.37-38.22q.84-3.81,7-7.37t23.93-4.74l-8.77,40.51q3.31-1.86,17.09-20.34,3.49-6.13,11.28-3.68a17.59,17.59,0,0,1,8.77,8.73q3.15,6.3,7.71,14.1,4.14-10.53,4.71-17.54.48-14-17.52-24-25.18-12.21-37-13.18t-14.5.39q6.88-18.58,14.78-31t13.09-16.35q4.1-4.4,15.2-2.39l76.14,16.68q-7,11.21-10.25,16.22-6,8.38-12.54,7Z"/></g></g></svg>