<svg id="Layer_1" data-name="Layer 1" xmlns="http://www.w3.org/2000/svg" viewBox="0 0 746.9 542.53"><defs><style>.cls-1{fill:#ed1c24;}.cls-2{fill:#fff200;}.cls-3{fill:#00aeef;}</style></defs><path class="cls-1" d="M150.72,428.74V536h-88V158.51h88.47q81.09,0,107.41,20.72T285,255.37v76.52q0,54.41-25.68,75.63t-94.06,21.22Zm45.76-96.35V252.31q0-15.75-5.34-21.48t-20.84-5.72H150.72V359.6H170.3q15.49,0,20.84-5.72T196.48,332.39Z" transform="translate(-62.76 -153.93)"/><path class="cls-2" d="M548.32,434.59q0,38.9-4.32,55.55a63.86,63.86,0,0,1-15,28.09,60.9,60.9,0,0,1-28.73,17.41q-17.28,5-65.33,5-48.3,0-65.59-5a60.9,60.9,0,0,1-28.73-17.41q-10.67-11.7-15.25-28.86t-4.57-54.78V260.2q0-37.63,4.44-54.66a65.64,65.64,0,0,1,15.38-28.73q11.7-12.7,30.89-17.79t63.43-5.09q44,0,62.92,5.09t30.63,17.79a65.44,65.44,0,0,1,15.38,28.73q4.46,17,4.45,54.66Zm-90,12.46V248q0-15.75-4.71-21.1t-18.68-5.34q-14.24,0-18.94,5.34T411.3,248V447.05q0,16,4.7,21.22t18.94,5.22q14,0,18.68-5.22T458.33,447.05Z" transform="translate(-62.76 -153.93)"/><path class="cls-3" d="M673.65,409.93v36.61q0,14.74,5.85,20.84t19.83,6.11q15.25,0,20.59-5.85t5.34-22.12V418.83q0-12.21-1.53-18.05a28.38,28.38,0,0,0-5.08-10.42q-8.64-10.42-39.91-17.29-14.25-3-22.12-5.34Q620,357.3,606.28,338.62t-13.72-58.85V244.94q0-50.83,19.7-70.93t68.26-20.08h25.93q30.49,0,50.08,5.21t30.76,16.65q8.9,8.91,12.46,22.63t3.55,44v29.24h-78V248q0-17.79-4.7-23.64t-19.2-5.85q-14,0-18.94,5.47t-4.95,20.46v24.41q0,27.71,47.28,39.66,13.47,3.56,21.35,5.84,36.36,10.17,50,28.48t13.6,58v50.84q0,47.29-22.5,68.13T713.82,540.6H690.43q-55.93,0-76.9-19.07t-21-70.42V409.93Z" transform="translate(-62.76 -153.93)"/><path class="cls-2" d="M62.76,685.77s149.45-150.13,416-78.13,330.89-82.72,330.89-82.72S648.81,747.05,391.45,685.77,62.76,685.77,62.76,685.77Z" transform="translate(-62.76 -153.93)"/></svg>