<?xml version="1.0" standalone="no"?>
<!DOCTYPE svg PUBLIC "-//W3C//DTD SVG 1.1//EN" "http://www.w3.org/Graphics/SVG/1.1/DTD/svg11.dtd">
<svg width="126" height="126" version="1.1" xmlns="http://www.w3.org/2000/svg">
	<g id="elements" fill="#F79321" stroke="none">
		<rect x="0" y="0" width="6" height="6" />
		<rect x="6" y="0" width="6" height="6" />
		<rect x="12" y="0" width="6" height="6" />
		<rect x="18" y="0" width="6" height="6" />
		<rect x="24" y="0" width="6" height="6" />
		<rect x="30" y="0" width="6" height="6" />
		<rect x="36" y="0" width="6" height="6" />
		<rect x="54" y="0" width="6" height="6" />
		<rect x="72" y="0" width="6" height="6" />
		<rect x="84" y="0" width="6" height="6" />
		<rect x="90" y="0" width="6" height="6" />
		<rect x="96" y="0" width="6" height="6" />
		<rect x="102" y="0" width="6" height="6" />
		<rect x="108" y="0" width="6" height="6" />
		<rect x="114" y="0" width="6" height="6" />
		<rect x="120" y="0" width="6" height="6" />
		<rect x="0" y="6" width="6" height="6" />
		<rect x="36" y="6" width="6" height="6" />
		<rect x="48" y="6" width="6" height="6" />
		<rect x="66" y="6" width="6" height="6" />
		<rect x="84" y="6" width="6" height="6" />
		<rect x="120" y="6" width="6" height="6" />
		<rect x="0" y="12" width="6" height="6" />
		<rect x="12" y="12" width="6" height="6" />
		<rect x="18" y="12" width="6" height="6" />
		<rect x="24" y="12" width="6" height="6" />
		<rect x="36" y="12" width="6" height="6" />
		<rect x="54" y="12" width="6" height="6" />
		<rect x="84" y="12" width="6" height="6" />
		<rect x="96" y="12" width="6" height="6" />
		<rect x="102" y="12" width="6" height="6" />
		<rect x="108" y="12" width="6" height="6" />
		<rect x="120" y="12" width="6" height="6" />
		<rect x="0" y="18" width="6" height="6" />
		<rect x="12" y="18" width="6" height="6" />
		<rect x="18" y="18" width="6" height="6" />
		<rect x="24" y="18" width="6" height="6" />
		<rect x="36" y="18" width="6" height="6" />
		<rect x="48" y="18" width="6" height="6" />
		<rect x="66" y="18" width="6" height="6" />
		<rect x="84" y="18" width="6" height="6" />
		<rect x="96" y="18" width="6" height="6" />
		<rect x="102" y="18" width="6" height="6" />
		<rect x="108" y="18" width="6" height="6" />
		<rect x="120" y="18" width="6" height="6" />
		<rect x="0" y="24" width="6" height="6" />
		<rect x="12" y="24" width="6" height="6" />
		<rect x="18" y="24" width="6" height="6" />
		<rect x="24" y="24" width="6" height="6" />
		<rect x="36" y="24" width="6" height="6" />
		<rect x="60" y="24" width="6" height="6" />
		<rect x="66" y="24" width="6" height="6" />
		<rect x="72" y="24" width="6" height="6" />
		<rect x="84" y="24" width="6" height="6" />
		<rect x="96" y="24" width="6" height="6" />
		<rect x="102" y="24" width="6" height="6" />
		<rect x="108" y="24" width="6" height="6" />
		<rect x="120" y="24" width="6" height="6" />
		<rect x="0" y="30" width="6" height="6" />
		<rect x="36" y="30" width="6" height="6" />
		<rect x="48" y="30" width="6" height="6" />
		<rect x="54" y="30" width="6" height="6" />
		<rect x="60" y="30" width="6" height="6" />
		<rect x="72" y="30" width="6" height="6" />
		<rect x="84" y="30" width="6" height="6" />
		<rect x="120" y="30" width="6" height="6" />
		<rect x="0" y="36" width="6" height="6" />
		<rect x="6" y="36" width="6" height="6" />
		<rect x="12" y="36" width="6" height="6" />
		<rect x="18" y="36" width="6" height="6" />
		<rect x="24" y="36" width="6" height="6" />
		<rect x="30" y="36" width="6" height="6" />
		<rect x="36" y="36" width="6" height="6" />
		<rect x="48" y="36" width="6" height="6" />
		<rect x="60" y="36" width="6" height="6" />
		<rect x="72" y="36" width="6" height="6" />
		<rect x="84" y="36" width="6" height="6" />
		<rect x="90" y="36" width="6" height="6" />
		<rect x="96" y="36" width="6" height="6" />
		<rect x="102" y="36" width="6" height="6" />
		<rect x="108" y="36" width="6" height="6" />
		<rect x="114" y="36" width="6" height="6" />
		<rect x="120" y="36" width="6" height="6" />
		<rect x="60" y="42" width="6" height="6" />
		<rect x="66" y="42" width="6" height="6" />
		<rect x="72" y="42" width="6" height="6" />
		<rect x="0" y="48" width="6" height="6" />
		<rect x="6" y="48" width="6" height="6" />
		<rect x="12" y="48" width="6" height="6" />
		<rect x="18" y="48" width="6" height="6" />
		<rect x="24" y="48" width="6" height="6" />
		<rect x="36" y="48" width="6" height="6" />
		<rect x="42" y="48" width="6" height="6" />
		<rect x="48" y="48" width="6" height="6" />
		<rect x="54" y="48" width="6" height="6" />
		<rect x="72" y="48" width="6" height="6" />
		<rect x="78" y="48" width="6" height="6" />
		<rect x="90" y="48" width="6" height="6" />
		<rect x="102" y="48" width="6" height="6" />
		<rect x="114" y="48" width="6" height="6" />
		<rect x="0" y="54" width="6" height="6" />
		<rect x="24" y="54" width="6" height="6" />
		<rect x="42" y="54" width="6" height="6" />
		<rect x="72" y="54" width="6" height="6" />
		<rect x="90" y="54" width="6" height="6" />
		<rect x="108" y="54" width="6" height="6" />
		<rect x="0" y="60" width="6" height="6" />
		<rect x="24" y="60" width="6" height="6" />
		<rect x="36" y="60" width="6" height="6" />
		<rect x="48" y="60" width="6" height="6" />
		<rect x="54" y="60" width="6" height="6" />
		<rect x="66" y="60" width="6" height="6" />
		<rect x="78" y="60" width="6" height="6" />
		<rect x="96" y="60" width="6" height="6" />
		<rect x="102" y="60" width="6" height="6" />
		<rect x="114" y="60" width="6" height="6" />
		<rect x="6" y="66" width="6" height="6" />
		<rect x="18" y="66" width="6" height="6" />
		<rect x="24" y="66" width="6" height="6" />
		<rect x="42" y="66" width="6" height="6" />
		<rect x="54" y="66" width="6" height="6" />
		<rect x="60" y="66" width="6" height="6" />
		<rect x="90" y="66" width="6" height="6" />
		<rect x="96" y="66" width="6" height="6" />
		<rect x="102" y="66" width="6" height="6" />
		<rect x="108" y="66" width="6" height="6" />
		<rect x="114" y="66" width="6" height="6" />
		<rect x="120" y="66" width="6" height="6" />
		<rect x="0" y="72" width="6" height="6" />
		<rect x="6" y="72" width="6" height="6" />
		<rect x="18" y="72" width="6" height="6" />
		<rect x="24" y="72" width="6" height="6" />
		<rect x="30" y="72" width="6" height="6" />
		<rect x="36" y="72" width="6" height="6" />
		<rect x="66" y="72" width="6" height="6" />
		<rect x="78" y="72" width="6" height="6" />
		<rect x="96" y="72" width="6" height="6" />
		<rect x="108" y="72" width="6" height="6" />
		<rect x="48" y="78" width="6" height="6" />
		<rect x="60" y="78" width="6" height="6" />
		<rect x="66" y="78" width="6" height="6" />
		<rect x="72" y="78" width="6" height="6" />
		<rect x="78" y="78" width="6" height="6" />
		<rect x="84" y="78" width="6" height="6" />
		<rect x="108" y="78" width="6" height="6" />
		<rect x="114" y="78" width="6" height="6" />
		<rect x="0" y="84" width="6" height="6" />
		<rect x="6" y="84" width="6" height="6" />
		<rect x="12" y="84" width="6" height="6" />
		<rect x="18" y="84" width="6" height="6" />
		<rect x="24" y="84" width="6" height="6" />
		<rect x="30" y="84" width="6" height="6" />
		<rect x="36" y="84" width="6" height="6" />
		<rect x="48" y="84" width="6" height="6" />
		<rect x="60" y="84" width="6" height="6" />
		<rect x="72" y="84" width="6" height="6" />
		<rect x="84" y="84" width="6" height="6" />
		<rect x="90" y="84" width="6" height="6" />
		<rect x="102" y="84" width="6" height="6" />
		<rect x="108" y="84" width="6" height="6" />
		<rect x="114" y="84" width="6" height="6" />
		<rect x="0" y="90" width="6" height="6" />
		<rect x="36" y="90" width="6" height="6" />
		<rect x="54" y="90" width="6" height="6" />
		<rect x="66" y="90" width="6" height="6" />
		<rect x="72" y="90" width="6" height="6" />
		<rect x="78" y="90" width="6" height="6" />
		<rect x="84" y="90" width="6" height="6" />
		<rect x="102" y="90" width="6" height="6" />
		<rect x="108" y="90" width="6" height="6" />
		<rect x="0" y="96" width="6" height="6" />
		<rect x="12" y="96" width="6" height="6" />
		<rect x="18" y="96" width="6" height="6" />
		<rect x="24" y="96" width="6" height="6" />
		<rect x="36" y="96" width="6" height="6" />
		<rect x="48" y="96" width="6" height="6" />
		<rect x="54" y="96" width="6" height="6" />
		<rect x="72" y="96" width="6" height="6" />
		<rect x="90" y="96" width="6" height="6" />
		<rect x="108" y="96" width="6" height="6" />
		<rect x="114" y="96" width="6" height="6" />
		<rect x="0" y="102" width="6" height="6" />
		<rect x="12" y="102" width="6" height="6" />
		<rect x="18" y="102" width="6" height="6" />
		<rect x="24" y="102" width="6" height="6" />
		<rect x="36" y="102" width="6" height="6" />
		<rect x="48" y="102" width="6" height="6" />
		<rect x="60" y="102" width="6" height="6" />
		<rect x="72" y="102" width="6" height="6" />
		<rect x="90" y="102" width="6" height="6" />
		<rect x="102" y="102" width="6" height="6" />
		<rect x="0" y="108" width="6" height="6" />
		<rect x="12" y="108" width="6" height="6" />
		<rect x="18" y="108" width="6" height="6" />
		<rect x="24" y="108" width="6" height="6" />
		<rect x="36" y="108" width="6" height="6" />
		<rect x="48" y="108" width="6" height="6" />
		<rect x="54" y="108" width="6" height="6" />
		<rect x="60" y="108" width="6" height="6" />
		<rect x="66" y="108" width="6" height="6" />
		<rect x="78" y="108" width="6" height="6" />
		<rect x="96" y="108" width="6" height="6" />
		<rect x="0" y="114" width="6" height="6" />
		<rect x="36" y="114" width="6" height="6" />
		<rect x="48" y="114" width="6" height="6" />
		<rect x="60" y="114" width="6" height="6" />
		<rect x="90" y="114" width="6" height="6" />
		<rect x="96" y="114" width="6" height="6" />
		<rect x="108" y="114" width="6" height="6" />
		<rect x="0" y="120" width="6" height="6" />
		<rect x="6" y="120" width="6" height="6" />
		<rect x="12" y="120" width="6" height="6" />
		<rect x="18" y="120" width="6" height="6" />
		<rect x="24" y="120" width="6" height="6" />
		<rect x="30" y="120" width="6" height="6" />
		<rect x="36" y="120" width="6" height="6" />
		<rect x="48" y="120" width="6" height="6" />
		<rect x="54" y="120" width="6" height="6" />
		<rect x="60" y="120" width="6" height="6" />
		<rect x="66" y="120" width="6" height="6" />
		<rect x="78" y="120" width="6" height="6" />
		<rect x="96" y="120" width="6" height="6" />
		<rect x="108" y="120" width="6" height="6" />
		<rect x="114" y="120" width="6" height="6" />
	</g>
</svg>
