<?xml version="1.0" standalone="no"?>
<!DOCTYPE svg PUBLIC "-//W3C//DTD SVG 1.1//EN" "http://www.w3.org/Graphics/SVG/1.1/DTD/svg11.dtd">
<svg width="123" height="50" version="1.1" xmlns="http://www.w3.org/2000/svg">
	<g id="bars" fill="black" stroke="none">
		<rect x="0" y="0" width="2" height="38" />
		<rect x="3" y="0" width="1" height="38" />
		<rect x="6" y="0" width="1" height="38" />
		<rect x="11" y="0" width="2" height="38" />
		<rect x="14" y="0" width="3" height="38" />
		<rect x="20" y="0" width="1" height="38" />
		<rect x="22" y="0" width="1" height="38" />
		<rect x="24" y="0" width="3" height="38" />
		<rect x="28" y="0" width="2" height="38" />
		<rect x="33" y="0" width="2" height="38" />
		<rect x="36" y="0" width="3" height="38" />
		<rect x="40" y="0" width="1" height="38" />
		<rect x="44" y="0" width="1" height="38" />
		<rect x="47" y="0" width="3" height="38" />
		<rect x="51" y="0" width="2" height="38" />
		<rect x="55" y="0" width="2" height="38" />
		<rect x="59" y="0" width="3" height="38" />
		<rect x="64" y="0" width="1" height="38" />
		<rect x="66" y="0" width="1" height="38" />
		<rect x="69" y="0" width="2" height="38" />
		<rect x="72" y="0" width="3" height="38" />
		<rect x="77" y="0" width="1" height="38" />
		<rect x="80" y="0" width="3" height="38" />
		<rect x="84" y="0" width="2" height="38" />
		<rect x="88" y="0" width="1" height="38" />
		<rect x="91" y="0" width="3" height="38" />
		<rect x="96" y="0" width="2" height="38" />
		<rect x="99" y="0" width="3" height="38" />
		<rect x="103" y="0" width="1" height="38" />
		<rect x="107" y="0" width="2" height="38" />
		<rect x="110" y="0" width="2" height="38" />
		<rect x="115" y="0" width="3" height="38" />
		<rect x="119" y="0" width="1" height="38" />
		<rect x="121" y="0" width="2" height="38" />
		<rect x="123" y="0" width="0" height="38" />
		<rect x="123" y="0" width="0" height="38" />
	<text x="61.5" text-anchor="middle"  y="50" id="code" fill="black" font-size ="12px" >TMS02-01</text>
	</g>
</svg>
