<svg xmlns="http://www.w3.org/2000/svg" viewBox="0 0 99.21 127.56"><defs><style>.cls-1{fill:#fff;}.cls-2{fill:#231f20;}</style></defs><g id="Layer_2" data-name="Layer 2"><rect class="cls-1" width="99.21" height="127.56"/></g><g id="Layer_1" data-name="Layer 1"><path class="cls-2" d="M35.66,45.94a.88.88,0,0,1-.2.56.63.63,0,0,1-.5.26,1.94,1.94,0,0,1-.84-.31,2.27,2.27,0,0,0-.95-.29,1,1,0,0,0-.69.34c-.25.23-.38.41-.38.55s.19.17.56.23l.73.1a1.85,1.85,0,0,1,.36.07c.37.1.56.26.56.49v6.67a1.18,1.18,0,0,1-.13.64.69.69,0,0,1-.62.25,2.11,2.11,0,0,1-.94-.24,3.16,3.16,0,0,1-1.92-3c0-.81.28-1.22.85-1.22a1.07,1.07,0,0,1,.64.2.81.81,0,0,1,.23.22.44.44,0,0,1,.09.27v.11h-.14a.66.66,0,0,0-.74.75,1.33,1.33,0,0,0,.42.88,1.26,1.26,0,0,0,.89.41V49.24a.78.78,0,0,0-.6-.84l-1.11-.09c-.4,0-.6-.21-.6-.52a3.45,3.45,0,0,1,1.09-1.93C32.46,45,33,44.6,33.48,44.6a1.58,1.58,0,0,1,.83.32l.37.25.39.25a1.25,1.25,0,0,1,.21.1l.3.14A.38.38,0,0,1,35.66,45.94Z" transform="translate(0 0)"/><path class="cls-2" d="M34.68,56.4v3.78c0,.22-.42.43-1.27.61a6.89,6.89,0,0,1-1.57.24,5.42,5.42,0,0,1-.65-.05l-.86-.17c-.79-.19-1.19-.4-1.19-.63V57.11l-.29-.36c0-.23.28-.35.84-.35s.82.13.82.39v2.6c0,.22.2.4.6.52A3.25,3.25,0,0,0,32,60a3.09,3.09,0,0,0,.75-.23c.4-.14.6-.24.6-.31V56.4Z" transform="translate(0 0)"/><path class="cls-2" d="M48,45.94a.91.91,0,0,1-.21.57.67.67,0,0,1-.52.25,2.18,2.18,0,0,1-.84-.31,2.24,2.24,0,0,0-.94-.29,1,1,0,0,0-.65.34c-.24.24-.36.43-.36.55s.19.19.56.23l.69.1a1.42,1.42,0,0,1,.33.07c.37.09.56.25.56.49v5.79c0,.64-.47,1.11-1.4,1.43A7,7,0,0,1,43,55.5a7.79,7.79,0,0,1-2.55-.37c-.95-.33-1.43-.8-1.43-1.4V49.24a.81.81,0,0,0-.57-.87H38l-.23,0-.25,0-.1,0c-.37,0-.55-.21-.55-.5a3.54,3.54,0,0,1,1.08-1.93q1.11-1.26,1.77-1.26a1.81,1.81,0,0,1,.85.32l.75.5a1.22,1.22,0,0,1,.2.1l.29.14a.33.33,0,0,1,.11.28.91.91,0,0,1-.21.57.66.66,0,0,1-.51.25,2.15,2.15,0,0,1-.85-.31,2.24,2.24,0,0,0-.94-.29c-.39,0-.74.27-1,.81a5761954991239.78,5761954991239.78,0,0,0,0,.16,3.16,3.16,0,0,0,1,.21c.69.11,1,.31,1,.6v5.3c0,.34.31.59.93.76a6.32,6.32,0,0,0,1.68.18A4.43,4.43,0,0,0,44.37,54c.62-.19.92-.43.92-.73v-4c0-.39-.1-.63-.3-.74a4.56,4.56,0,0,0-1.16-.18c-.53-.06-.79-.24-.79-.55a3.54,3.54,0,0,1,1.07-1.91c.71-.84,1.29-1.26,1.73-1.26a1.75,1.75,0,0,1,.83.32l.75.5.21.1.3.14A.33.33,0,0,1,48,45.94Z" transform="translate(0 0)"/><path class="cls-2" d="M58.93,44.79c0,1.65-1,2.47-2.83,2.47a3.62,3.62,0,0,1-1.87-.66,3.4,3.4,0,0,0-1.62-.66,1.73,1.73,0,0,0-1.18.58,1.75,1.75,0,0,0-.62,1.11c.77,0,1.15.1,1.15.23v5.4c0,.32.33.57,1,.74a5.41,5.41,0,0,0,1.39.18,5,5,0,0,0,1.4-.23q1-.29,1-.72V51.67a2.18,2.18,0,0,1-.81.17,1.12,1.12,0,0,1-1-.49,1.69,1.69,0,0,1-.32-1,2.2,2.2,0,0,1,.92-1.65,2.9,2.9,0,0,1,1.8-.74.68.68,0,0,1,.63.25,1.28,1.28,0,0,1,.12.66v4.92c0,.6-.48,1.07-1.46,1.41a7.24,7.24,0,0,1-2.29.34,6.72,6.72,0,0,1-2.25-.37c-1-.34-1.48-.8-1.48-1.38V48.57c0-.11-.26-.18-.77-.21l-.83,0a4.93,4.93,0,0,1,1.26-2.37,3.17,3.17,0,0,1,2.29-1.32,4,4,0,0,1,2,.66,3.94,3.94,0,0,0,1.54.66,3,3,0,0,0,.72-.07,1.22,1.22,0,0,0,.5-.23,1,1,0,0,0,.29-.44,2.1,2.1,0,0,0,.1-.67,1.92,1.92,0,0,0-.18-.82.67.67,0,0,0-.62-.49.44.44,0,0,0-.29.12l-.17.1c-.14,0-.2-.15-.2-.45a1.94,1.94,0,0,1,.18-.75.63.63,0,0,1,.58-.43c.52,0,1,.38,1.38,1.13A3.9,3.9,0,0,1,58.93,44.79Zm-2.21,5.9V49.24a1.35,1.35,0,0,0-.78.24,1.15,1.15,0,0,0-.27.27.63.63,0,0,0-.11.35c0,.52.2.79.61.79A1,1,0,0,0,56.72,50.69Z" transform="translate(0 0)"/><path class="cls-2" d="M69.33,46.21c0,.1-.17.2-.43.33a1.82,1.82,0,0,1-.6.18.79.79,0,0,1-.6-.37c-.19-.25-.37-.38-.52-.38a2.33,2.33,0,0,0-1,.5,2.33,2.33,0,0,1-1,.5A2.22,2.22,0,0,1,64,46.39a2.29,2.29,0,0,0-1.16-.6c-.46,0-.69.15-.69.44a.44.44,0,0,0,.25.35.53.53,0,0,1,.23.44c0,.55-.14.82-.44.82a4.06,4.06,0,0,1-.88-.49,7,7,0,0,1-.86-.58,2.92,2.92,0,0,1,1.18-1.49,3.14,3.14,0,0,1,1.82-.72,1.92,1.92,0,0,1,1,.58,1.87,1.87,0,0,0,1,.58,2.38,2.38,0,0,0,1-.58,2.6,2.6,0,0,1,1-.58c.21,0,.55.24,1,.7l.46.47Q69.12,46,69.33,46.21Zm-.61,3.06v6.19H67.36V49.79c0-.29-.4-.5-1.19-.61a6.59,6.59,0,0,0-.76-.1c-.24,0-.51,0-.78,0s-.53,0-.78,0a7,7,0,0,0-.75.1c-.8.12-1.2.32-1.2.61v1.13a1.63,1.63,0,0,1,1.15-.47,1.39,1.39,0,0,1,1,.42,1.46,1.46,0,0,1,.42,1.05,3.3,3.3,0,0,1-.62,1.89,4.25,4.25,0,0,1-1.52,1.34,2.47,2.47,0,0,1-1.09.35c-.32,0-.53-.09-.62-.29a1.34,1.34,0,0,1-.12-.68V49.27c0-.54.56-.94,1.7-1.18a13,13,0,0,1,4.77,0C68.16,48.33,68.72,48.73,68.72,49.27Zm-5.14,2.64c0-.48-.21-.71-.63-.71a1.46,1.46,0,0,0-1.05.47V53.9a1.69,1.69,0,0,0,1.17-.72A2.19,2.19,0,0,0,63.58,51.91Z" transform="translate(0 0)"/><path class="cls-2" d="M45.61,70.62H44.19v4H42.65v-4H37.37V69l5.35-6h1.47v6.34h1.42Zm-3-1.25V64.85l-4,4.52Z" transform="translate(0 0)"/><path class="cls-2" d="M54.08,74.59H52.23l-2.18-3.27-2.24,3.27H46.1l3.12-4.3-3.08-4.37H48l2.16,3.24,2.21-3.24h1.72L51,70.19Z" transform="translate(0 0)"/><path class="cls-2" d="M62.59,70.84a4.4,4.4,0,0,1-.3,1.65,3.87,3.87,0,0,1-.82,1.26,3.8,3.8,0,0,1-1.2.81,3.92,3.92,0,0,1-1.47.27,3.85,3.85,0,0,1-1.47-.26,3.43,3.43,0,0,1-1.17-.78,4.25,4.25,0,0,1-1-1.69,8.36,8.36,0,0,1-.35-2.59,10.86,10.86,0,0,1,.32-2.72,6.38,6.38,0,0,1,1-2.12,4.44,4.44,0,0,1,1.68-1.37,5.37,5.37,0,0,1,2.37-.49,5.86,5.86,0,0,1,.75,0,3.29,3.29,0,0,1,.61.12v1.49h-.07a3,3,0,0,0-.63-.22,4,4,0,0,0-.87-.09,3.18,3.18,0,0,0-2.42,1A4.72,4.72,0,0,0,56.49,68a5,5,0,0,1,1.17-.59A4,4,0,0,1,59,67.21a5,5,0,0,1,1.23.13,3.39,3.39,0,0,1,1.09.55,2.91,2.91,0,0,1,1,1.22A4.21,4.21,0,0,1,62.59,70.84ZM61,70.9a3.19,3.19,0,0,0-.19-1.19,2.09,2.09,0,0,0-.62-.83,1.7,1.7,0,0,0-.71-.32,4.47,4.47,0,0,0-.82-.08,3.64,3.64,0,0,0-1.09.16,4.62,4.62,0,0,0-1,.48l0,.33v.4a6.43,6.43,0,0,0,.24,1.94,2.88,2.88,0,0,0,.61,1.12,2,2,0,0,0,.71.51,2,2,0,0,0,.79.15,2,2,0,0,0,1.56-.67A2.9,2.9,0,0,0,61,70.9Z" transform="translate(0 0)"/></g></svg>