<svg xmlns="http://www.w3.org/2000/svg" viewBox="0 0 300 200"><defs><style>.cls-1,.cls-2{fill:#fff;}.cls-2{stroke:#808285;stroke-miterlimit:10;}.cls-3{fill:#d1d3d4;}</style></defs><g id="Layer_2" data-name="Layer 2"><rect class="cls-1" width="300" height="200"/></g><g id="Layer_1" data-name="Layer 1"><rect class="cls-2" x="16.87" y="22.51" width="66.38" height="82.72"/><rect class="cls-3" x="16.36" y="109.32" width="66.89" height="5.62"/><rect class="cls-3" x="16.36" y="116.47" width="30.38" height="5.62"/><rect class="cls-3" x="16.36" y="155.28" width="266.38" height="7.15"/><rect class="cls-3" x="87.85" y="21.74" width="93.19" height="7.15"/><rect class="cls-3" x="87.85" y="43.96" width="93.19" height="7.15"/><rect class="cls-3" x="87.85" y="66.81" width="93.19" height="7.15"/><rect class="cls-3" x="87.85" y="89.79" width="93.19" height="7.15"/><rect class="cls-3" x="87.85" y="32.85" width="66.64" height="7.15"/><rect class="cls-3" x="87.85" y="55.57" width="46.47" height="7.15"/><rect class="cls-3" x="87.85" y="77.91" width="67.4" height="7.15"/><rect class="cls-3" x="87.85" y="102.77" width="55.83" height="7.15"/><rect class="cls-3" x="226.06" y="14.26" width="55.83" height="7.15"/><rect class="cls-3" x="16.36" y="175.36" width="266.38" height="7.15"/><rect class="cls-3" x="16.36" y="164.81" width="128.68" height="7.15"/></g></svg>