<svg xmlns="http://www.w3.org/2000/svg" viewBox="0 0 56 56"><defs><style>.cls-1{fill:#fdfefe;}.cls-2{fill:#070808;}.cls-3{fill:#e4b9a1;}.cls-4{fill:#fccfb7;}.cls-5{fill:#231f20;}.cls-6{fill:#fff;}.cls-7{fill:#3f50a2;}</style></defs><g id="Layer_2" data-name="Layer 2"><rect class="cls-1" width="56" height="56"/></g><g id="Layer_1" data-name="Layer 1"><path class="cls-2" d="M10.64,56.81s-1.53-11.5,2.83-15.66a13.8,13.8,0,0,1,9.89-3.68l5.56,3.58,1.95.07L37,37.4s8.83.34,10.91,6.86a28.63,28.63,0,0,1,1,12.55Z" transform="translate(0 0)"/><polygon class="cls-3" points="23.36 30.14 23.36 35.7 29.84 40.88 36.09 35.29 36.15 30.89 23.36 30.14"/><path class="cls-4" d="M19.41,17.35S18.62,32.73,30,33.55,41,14.72,41,14.72s-15.18-3.65-17.29-1.53S19.41,17.35,19.41,17.35Z" transform="translate(0 0)"/><path class="cls-5" d="M21.86,24.65s-1.33-7.78,2.36-7.17a42,42,0,0,0,10.54.31c1.43-.31,3.47,2.25,3.37,5.73s1.95-.72,1.95-.72,2.66-7.67-.62-10.84-6.65-5.12-10.33-4.5-7.68,1.43-9,4.7S19.2,21.37,21.86,24.65Z" transform="translate(0 0)"/><polygon class="cls-6" points="29.4 40.78 25.21 44.05 24.76 43.88 21.76 35.59 23.06 35.49 29.4 40.78"/><polygon class="cls-6" points="29.98 40.81 34.45 43.98 38.06 35.63 36.09 35.29 29.98 40.81"/><path class="cls-7" d="M29.71,40.78c-1,0-3.34,2.45-3.34,2.45L28,45.11l-1.22,6.72,1.56,4.91h3.24L32.81,52l-1.29-7,1.84-1.84S30.66,40.74,29.71,40.78Z" transform="translate(0 0)"/></g></svg>
