<svg xmlns="http://www.w3.org/2000/svg" viewBox="0 0 121.79 121.79"><defs><style>.cls-1{fill:none;}.cls-2{fill:#bfbba5;}.cls-3{fill:#e9500e;}.cls-4{fill:#f18700;}.cls-5{fill:#ed6d05;}.cls-6{fill:#f8ac00;}.cls-7{fill:#f39000;}.cls-8{fill:#fec700;}.cls-9{fill:#999579;}.cls-10{fill:#a9a692;}.cls-11{fill:#d7d2b8;}</style></defs><g id="Layer_2" data-name="Layer 2"><g id="Capa_1" data-name="Capa 1"><rect class="cls-1" width="121.79" height="121.79"/><path class="cls-2" d="M48.9,21.47H39.76s-1.2-7.17,0-8S47,12.22,48.43,13,48.9,21.47,48.9,21.47Z"/><path class="cls-2" d="M82.22,20.1H73.09s-1.21-7.16,0-8,7.19-1.25,8.66-.47S82.22,20.1,82.22,20.1Z"/><polygon class="cls-3" points="85.73 37.81 92.85 37.81 92.85 13.2 85.73 18.34 85.73 37.81"/><polygon class="cls-4" points="92.85 13.2 22.89 16.34 30.01 95.19 93.3 97.65 98.89 22.46 86.81 17.42 92.85 13.2"/><polygon class="cls-5" points="86.81 17.42 98.89 22.46 89.22 17.42 92.85 13.2 86.81 17.42"/><polygon class="cls-5" points="30.01 41.93 37.13 41.93 37.13 19.03 30.01 22.46 30.01 41.93"/><polygon class="cls-6" points="34.07 112.7 22.89 92.15 22.89 16.34 37.13 19.03 34.07 24.93 34.07 112.7"/><polygon class="cls-7" points="34.07 112.7 22.89 92.15 34.07 84.09 34.07 112.7"/><polygon class="cls-8" points="98.89 22.46 34.07 24.93 34.07 112.7 98.89 105.3 98.89 22.46"/><path class="cls-9" d="M47.13,24.48l-6.31.2s.37-3.09,2.74-3.09C47.7,21.59,47.13,24.48,47.13,24.48Z"/><path class="cls-10" d="M82.32,23.23l-3.67.11s.13-1.92,1.27-2a4.09,4.09,0,0,1,2.09.56Z"/><path class="cls-2" d="M77,50.25c-4.43,4.3-12.75,4.57-16.11,2.23-2.56-1.78-6.48-8.43-4.7-7.19C61,47.57,73.11,49.58,81.3,41.12,82.51,40.45,80.27,47.09,77,50.25Z"/><path class="cls-11" d="M60.89,52.48c-7.79-4.37-12-13.77-14.52-28a3.57,3.57,0,0,0-2.81-2.88h6.28a4.91,4.91,0,0,1,3.73,3C55.42,30.1,55.92,46.36,60.89,52.48Z"/><path class="cls-11" d="M77,50.25C81.3,47,86.59,36,88.34,24.36c.49-3.23-2.14-3.23-2.14-3.23l-6.28.24s1.31.15,1.23,3.41C81,31.86,81.3,39.75,77,50.25Z"/></g></g></svg>