<?xml version="1.0" standalone="no"?>
<!DOCTYPE svg PUBLIC "-//W3C//DTD SVG 1.1//EN" "http://www.w3.org/Graphics/SVG/1.1/DTD/svg11.dtd">
<svg width="101" height="50" version="1.1" xmlns="http://www.w3.org/2000/svg">
	<g id="bars" fill="black" stroke="none">
		<rect x="0" y="0" width="2" height="38" />
		<rect x="3" y="0" width="1" height="38" />
		<rect x="6" y="0" width="3" height="38" />
		<rect x="11" y="0" width="1" height="38" />
		<rect x="13" y="0" width="2" height="38" />
		<rect x="17" y="0" width="3" height="38" />
		<rect x="22" y="0" width="1" height="38" />
		<rect x="24" y="0" width="2" height="38" />
		<rect x="28" y="0" width="3" height="38" />
		<rect x="33" y="0" width="1" height="38" />
		<rect x="35" y="0" width="4" height="38" />
		<rect x="40" y="0" width="3" height="38" />
		<rect x="44" y="0" width="1" height="38" />
		<rect x="47" y="0" width="2" height="38" />
		<rect x="50" y="0" width="3" height="38" />
		<rect x="55" y="0" width="1" height="38" />
		<rect x="58" y="0" width="3" height="38" />
		<rect x="62" y="0" width="2" height="38" />
		<rect x="66" y="0" width="1" height="38" />
		<rect x="69" y="0" width="3" height="38" />
		<rect x="74" y="0" width="2" height="38" />
		<rect x="77" y="0" width="3" height="38" />
		<rect x="81" y="0" width="2" height="38" />
		<rect x="84" y="0" width="1" height="38" />
		<rect x="88" y="0" width="2" height="38" />
		<rect x="93" y="0" width="3" height="38" />
		<rect x="97" y="0" width="1" height="38" />
		<rect x="99" y="0" width="2" height="38" />
		<rect x="101" y="0" width="0" height="38" />
		<rect x="101" y="0" width="0" height="38" />
	<text x="50.5" text-anchor="middle"  y="50" id="code" fill="black" font-size ="12px" >1212-01</text>
	</g>
</svg>
