<?xml version="1.0" standalone="no"?>
<!DOCTYPE svg PUBLIC "-//W3C//DTD SVG 1.1//EN" "http://www.w3.org/Graphics/SVG/1.1/DTD/svg11.dtd">
<svg width="134" height="50" version="1.1" xmlns="http://www.w3.org/2000/svg">
	<g id="bars" fill="black" stroke="none">
		<rect x="0" y="0" width="2" height="38" />
		<rect x="3" y="0" width="1" height="38" />
		<rect x="6" y="0" width="1" height="38" />
		<rect x="11" y="0" width="1" height="38" />
		<rect x="13" y="0" width="2" height="38" />
		<rect x="16" y="0" width="3" height="38" />
		<rect x="22" y="0" width="1" height="38" />
		<rect x="27" y="0" width="2" height="38" />
		<rect x="31" y="0" width="1" height="38" />
		<rect x="33" y="0" width="2" height="38" />
		<rect x="39" y="0" width="1" height="38" />
		<rect x="42" y="0" width="1" height="38" />
		<rect x="44" y="0" width="2" height="38" />
		<rect x="50" y="0" width="1" height="38" />
		<rect x="53" y="0" width="1" height="38" />
		<rect x="55" y="0" width="1" height="38" />
		<rect x="58" y="0" width="1" height="38" />
		<rect x="60" y="0" width="2" height="38" />
		<rect x="66" y="0" width="2" height="38" />
		<rect x="72" y="0" width="1" height="38" />
		<rect x="75" y="0" width="1" height="38" />
		<rect x="77" y="0" width="1" height="38" />
		<rect x="80" y="0" width="2" height="38" />
		<rect x="83" y="0" width="3" height="38" />
		<rect x="88" y="0" width="1" height="38" />
		<rect x="91" y="0" width="3" height="38" />
		<rect x="95" y="0" width="2" height="38" />
		<rect x="99" y="0" width="1" height="38" />
		<rect x="102" y="0" width="3" height="38" />
		<rect x="107" y="0" width="2" height="38" />
		<rect x="110" y="0" width="2" height="38" />
		<rect x="114" y="0" width="1" height="38" />
		<rect x="117" y="0" width="1" height="38" />
		<rect x="121" y="0" width="2" height="38" />
		<rect x="126" y="0" width="3" height="38" />
		<rect x="130" y="0" width="1" height="38" />
		<rect x="132" y="0" width="2" height="38" />
		<rect x="134" y="0" width="0" height="38" />
		<rect x="134" y="0" width="0" height="38" />
	<text x="67" text-anchor="middle"  y="50" id="code" fill="black" font-size ="12px" >Jjkkak-01</text>
	</g>
</svg>
