<svg xmlns="http://www.w3.org/2000/svg" viewBox="0 0 137.14 6.91"><defs><style>.cls-1{fill:#231f20;}</style></defs><g id="Layer_2" data-name="Layer 2"><g id="Layer_1-2" data-name="Layer 1"><path class="cls-1" d="M58.88,1.48,60.08,3a2.05,2.05,0,0,1-.52,1.74,2.69,2.69,0,0,1-1.53,1,1.81,1.81,0,0,1-1.71-.86,3,3,0,0,0-.86-.74Q53,3.93,49.62,3.82c-2.26-.08-4.5-.12-6.7-.12l-4.7,0-4.7,0a1.22,1.22,0,0,1-.66.89,3.7,3.7,0,0,1-1.34.19l-.91-1.19L0,3.88l.23-.4H30.78a1.59,1.59,0,0,1,1.54-1.2,1.1,1.1,0,0,1,.8.34.61.61,0,0,0,.2.66.55.55,0,0,0,.6.2l19.77-.23A2.32,2.32,0,0,0,56,2.31c.77-.82,1.37-1.23,1.79-1.23A2.24,2.24,0,0,1,58.88,1.48Zm-20.46.8c0-.42.23-.63.68-.63a.8.8,0,0,1,.74.4.32.32,0,0,1-.05.4l-.35.34A.85.85,0,0,1,38.42,2.28Zm.34,2.05c.68-.15,1,0,.91.57.08.31-.11.55-.57.74a2.74,2.74,0,0,0-.62-.28Zm2.45-2.79a.56.56,0,0,1,1.06.08.84.84,0,0,1,0,.77,1,1,0,0,1-1,.29Q41.21,2.62,41.21,1.54Zm.46,2.79c.15-.07.45.12.91.57a.94.94,0,0,1-.4.91l-1-.39Zm10.66-4c.38,0,.66-.05.85-.05A1.16,1.16,0,0,1,54.26.8l-.45,1.37c-1.52.15-3.31.22-5.36.22H45.69c-.71,0-1.4,0-2.09-.05H43a15.93,15.93,0,0,1,2.25-.29C46,2,46.91,2,47.94,2l1.85,0c.63,0,1.26,0,1.91,0a3.13,3.13,0,0,0,.17-.91C51.91.68,52.06.4,52.33.28ZM53.47,4.9l.85.69c-.11.3-.21.57-.28.79a.75.75,0,0,1-.57.46,1.37,1.37,0,0,1-1.4-.34,1.12,1.12,0,0,1-.31-1.31l-8.67-.35c1.1,0,2.19,0,3.25,0l3.25-.12A30.8,30.8,0,0,1,53.47,4.9ZM65.21,1.77,67.54.11a20.23,20.23,0,0,1,2.17.4A2.09,2.09,0,0,1,71.19,2a4.51,4.51,0,0,1,3.94-2,6,6,0,0,1,1.42.17l.57.4-1,1c-.58.53-.78,1-.63,1.48a1.78,1.78,0,0,0-.83-.91,2.51,2.51,0,0,0-1.34-.4,2.61,2.61,0,0,0-.91.22,1.82,1.82,0,0,0-.63,1.26,1.77,1.77,0,0,0,.23.68,1.94,1.94,0,0,0,1.65.74,1.84,1.84,0,0,0,.92-.22l.51-.57,2.39,2.28q-1,.28-1.62.39a6.88,6.88,0,0,1-1.34.12,3,3,0,0,1-1.71-.46L71.71,4.73c-.46.42-.9.84-1.31,1.25a3.3,3.3,0,0,1-1.6.69,10.94,10.94,0,0,1-1.54-.06A2.88,2.88,0,0,1,65.21,5a3.68,3.68,0,0,1-3.59,1.88,4.07,4.07,0,0,1-1.88-.4l-.29-.17c.38-.38.78-.8,1.2-1.25a1.68,1.68,0,0,0,.51-1.43A2.85,2.85,0,0,0,62,4.5a1.82,1.82,0,0,0,1.11.4,1.31,1.31,0,0,0,1-.4,7,7,0,0,1,.4-.62,1.17,1.17,0,0,0,.22-.63.75.75,0,0,0-.45-.69,2,2,0,0,0-1.43-.62,1.59,1.59,0,0,0-.68.14,1,1,0,0,0-.43.6c-.09.3-.27.42-.54.34a2.07,2.07,0,0,0-.54-1.48A2.2,2.2,0,0,0,59.39.68,7.74,7.74,0,0,1,60.71.2,4.83,4.83,0,0,1,62,.06,3.22,3.22,0,0,1,63,.23Zm5.53.85C70.43,1.44,69.54.85,68.06.85a2.34,2.34,0,0,0-2.45,1.49,4.43,4.43,0,0,0-.06.85,4.53,4.53,0,0,0,.26,1.63,1.81,1.81,0,0,0,1.11,1,4.28,4.28,0,0,0,1.59.35,2.08,2.08,0,0,0,.92-.2,1.54,1.54,0,0,0,.65-.77c.17-.38.34-.73.51-1.06a1.79,1.79,0,0,0,.26-.88A3.56,3.56,0,0,0,70.74,2.62Zm-3.37-.57h1.2c.68,0,1.06.29,1.14.86.12,1-.19,1.61-.91,1.88a1.87,1.87,0,0,1-1.94-.74,3.63,3.63,0,0,1,0-.94A1.74,1.74,0,0,1,67.37,2.05Zm10-.23a1.68,1.68,0,0,1,1.36-.74A4.74,4.74,0,0,1,80.94,2a11.81,11.81,0,0,0,1.25.75c1.18.11,2.67.19,4.48.22l3,.06c1,0,2.36,0,4.24-.06s3.28,0,4.19,0a1.33,1.33,0,0,0-.31-.54.72.72,0,0,1-.2-.6c.11-.35.4-.48.86-.4a.8.8,0,0,1,.4,1l-.75.57a1.15,1.15,0,0,1,.37-.06h.26a12.86,12.86,0,0,1,1.88.23,13,13,0,0,0,2,.23A3.3,3.3,0,0,0,104.22,3a2.73,2.73,0,0,0,1.12-1.14l1.88,1.37h29.92q-6.94,0-17.81.14t-12.74.15a2.21,2.21,0,0,1-.34.62,1.51,1.51,0,0,1-1.14.57.74.74,0,0,1-.69-.4,3.3,3.3,0,0,0-1.53-.71,11.4,11.4,0,0,0-2.23-.2c-.3,0-.61,0-.91,0l-.85,0L98.72,5l-1.08-.18a1.16,1.16,0,0,1,.51-1.19L82,3.93a4.45,4.45,0,0,0-1.54,1,3,3,0,0,1-1.6.86,1.64,1.64,0,0,1-1.14-.57c-.27-.46-.47-.83-.63-1.11a2.14,2.14,0,0,1-.22-1A1.75,1.75,0,0,1,77.41,1.82ZM94.16,4.5l-.22.4L85.1,5a2.8,2.8,0,0,1,.11.68,1.19,1.19,0,0,1-.68,1.08,3.78,3.78,0,0,1-1-.4,1.42,1.42,0,0,1-.68-.79.81.81,0,0,1,.54-.86,5,5,0,0,1,1.4-.4ZM83.39.06a1.79,1.79,0,0,1,1.77.57l-.06,1,9,.22-.23.46c-.57,0-1.47,0-2.71.06s-2.16.05-2.76.05c-1,0-1.91,0-2.77-.11a11.5,11.5,0,0,1-2.48-.51A1.16,1.16,0,0,1,82.94,1,1.05,1.05,0,0,1,83.39.06ZM94.56,4.9a.78.78,0,0,1,.29-.71,1.06,1.06,0,0,1,.74-.31.66.66,0,0,1,.68.51.57.57,0,0,1,0,.51l-.57.74a.65.65,0,0,1-.77,0A1,1,0,0,1,94.56,4.9ZM94.73,2a.61.61,0,0,1,.06-.68.94.94,0,0,1,.69-.23c.49,0,.74.23.74.69a.55.55,0,0,1-.06.4,5,5,0,0,0-.4.34C95.53,2.62,95.19,2.45,94.73,2Z"/></g></g></svg>